<?xml version="1.0" encoding="utf-8"?>
<svg version="1.0" width="427.000000pt" height="183.000000pt" viewBox="0 0 427.000000 183.000000" preserveAspectRatio="xMidYMid meet" xmlns="http://www.w3.org/2000/svg">
  <g transform="translate(0.000000,183.000000) scale(0.100000,-0.100000)" fill="#000000" stroke="none">
    <path d="M2 918 l3 -913 2120 0 2120 0 3 913 2 912 -2125 0 -2125 0 2 -912z m4193 2 l0 -855 -2067 -3 -2068 -2 0 537 0 538 381 323 381 322 1687 -2 1686 -3 0 -855z m-3699 759 l19 -22 -130 -124 c-90 -86 -135 -123 -149 -121 -12 2 -47 40 -84 91 -62 85 -64 88 -47 107 10 11 22 20 26 20 5 0 32 -31 61 -69 l51 -70 110 105 c60 57 113 104 117 104 4 0 15 -10 26 -21z" style="fill: rgb(255, 102, 51);"/>
  </g>
</svg>